<svg width="966" height="819" viewBox="0 0 966 819" fill="none" xmlns="http://www.w3.org/2000/svg">
<path d="M654 370H704V384.126H654V370Z" fill="white"/>
<path d="M654 413.874H704V428H654V413.874Z" fill="#D4A037"/>
<path d="M654 391.937H687.286V406.063H654V391.937Z" fill="white"/>
<path d="M687.286 391.937V406.063H654V391.937H687.286ZM654.142 405.897H687.144V392.103H654.142V405.897Z" fill="white"/>
<path d="M628.004 384.349V427.5H615.69V384.349H628.004ZM647.5 370.5V383.349H629.004V370.5H647.5ZM628.004 370.5V383.349H615.69V370.5H628.004ZM614.69 370.5V383.349H593.5V370.5H614.69Z" fill="white" stroke="white"/>
<path d="M542.666 398.578L570.347 369.621H589.674L542.666 418.797V428H529V369.621H542.666V398.578Z" fill="white"/>
<path d="M589.057 428H569.263L555.165 413.758L564.717 403.41L589.057 428Z" fill="white"/>
<path d="M596 363.003L595.998 363.005V363L596 363.003Z" fill="white"/>
<path d="M608.023 212.209L471.545 447.25H471.551L256.126 818.25H0L482.81 0L608.023 212.209Z" fill="#D4A037"/>
<path d="M965.619 818.25H710.493L495.068 447.25H746.71L965.619 818.25Z" fill="#D4A037"/>
</svg>
