<svg width="1601" height="538" viewBox="0 0 1601 538" fill="none" xmlns="http://www.w3.org/2000/svg">
<path d="M1096.67 125.08V395.08H1013.67V125.08H1096.67ZM1219.67 40.0801V124.08H1097.67V40.0801H1219.67ZM1096.67 40.0801V124.08H1013.67V40.0801H1096.67ZM1012.67 40.0801V124.08H873.669V40.0801H1012.67Z" fill="black" stroke="black"/>
<path d="M1247.17 39.5801H1600.17V124.58H1247.17V39.5801Z" fill="black"/>
<path d="M1247.17 303.58H1600.17V388.58H1247.17V303.58Z" fill="#D4A037"/>
<path d="M1247.17 171.58H1482.17V256.58H1247.17V171.58Z" fill="black"/>
<path d="M1482.17 171.58V256.58H1247.17V171.58H1482.17ZM1248.17 255.58H1481.17V172.58H1248.17V255.58Z" fill="black"/>
<path d="M552.637 212.691L725.749 39.5801H846.62L552.637 333.563V388.58H467.169V39.5801H552.637V212.691Z" fill="black"/>
<path d="M842.763 388.58H718.972L630.805 303.438L690.54 241.58L842.763 388.58Z" fill="black"/>
<path d="M886.185 0.015625L886.169 0.03125V0L886.185 0.015625Z" fill="black"/>
<path d="M436.47 388.58H341.378L215.065 129.603L94.3027 388.58H0L162.74 39.5801H266.251L436.47 388.58Z" fill="black"/>
<path d="M1500.27 537.58V432.58H1549.47C1562.07 432.58 1571.67 435.08 1578.27 440.08C1584.87 444.98 1588.17 451.58 1588.17 459.88C1588.17 465.48 1586.87 470.28 1584.27 474.28C1581.67 478.18 1578.17 481.23 1573.77 483.43C1569.47 485.53 1564.77 486.58 1559.67 486.58L1562.37 481.18C1568.27 481.18 1573.57 482.28 1578.27 484.48C1582.97 486.58 1586.67 489.68 1589.37 493.78C1592.17 497.88 1593.57 502.98 1593.57 509.08C1593.57 518.08 1590.12 525.08 1583.22 530.08C1576.32 535.08 1566.07 537.58 1552.47 537.58H1500.27ZM1519.77 522.28H1551.27C1558.57 522.28 1564.17 521.08 1568.07 518.68C1571.97 516.28 1573.92 512.43 1573.92 507.13C1573.92 501.93 1571.97 498.13 1568.07 495.73C1564.17 493.23 1558.57 491.98 1551.27 491.98H1518.27V476.83H1547.37C1554.17 476.83 1559.37 475.63 1562.97 473.23C1566.67 470.83 1568.52 467.23 1568.52 462.43C1568.52 457.53 1566.67 453.88 1562.97 451.48C1559.37 449.08 1554.17 447.88 1547.37 447.88H1519.77V522.28Z" fill="#D4A037"/>
<path d="M1364.42 537.58L1411.67 432.58H1430.87L1478.27 537.58H1457.87L1417.22 442.93H1425.02L1384.52 537.58H1364.42ZM1386.17 513.28L1391.42 497.98H1448.12L1453.37 513.28H1386.17Z" fill="#D4A037"/>
<path d="M1261.27 537.58V432.58H1280.77V521.08H1335.67V537.58H1261.27Z" fill="#D4A037"/>
</svg>
